<mxfile host="app.diagrams.net" modified="2021-11-18T19:10:56.697Z" agent="5.0 (Windows NT 10.0; Win64; x64) AppleWebKit/537.36 (KHTML, like Gecko) Chrome/93.0.4577.63 Safari/537.36" etag="_nzE_aaXsdHI2t7Nb4bY" version="15.8.2" type="github">
  <diagram id="R2lEEEUBdFMjLlhIrx00" name="Page-1">
    <mxGraphModel dx="1422" dy="794" grid="1" gridSize="10" guides="1" tooltips="1" connect="1" arrows="1" fold="1" page="1" pageScale="1" pageWidth="850" pageHeight="1100" math="0" shadow="0" extFonts="Permanent Marker^https://fonts.googleapis.com/css?family=Permanent+Marker">
      <root>
        <mxCell id="0" />
        <mxCell id="1" parent="0" />
        <mxCell id="C-vyLk0tnHw3VtMMgP7b-1" value="" style="edgeStyle=elbowEdgeStyle;endArrow=ERmany;startArrow=none;endFill=0;startFill=0;exitX=0;exitY=0.1;exitDx=0;exitDy=0;entryX=0.996;entryY=0.1;entryDx=0;entryDy=0;entryPerimeter=0;rounded=0;exitPerimeter=0;" parent="1" source="vtek3SlrAaMKgHhZsIxQ-12" target="C-vyLk0tnHw3VtMMgP7b-23" edge="1">
          <mxGeometry width="100" height="100" relative="1" as="geometry">
            <mxPoint x="340" y="720" as="sourcePoint" />
            <mxPoint x="330" y="160" as="targetPoint" />
          </mxGeometry>
        </mxCell>
        <mxCell id="C-vyLk0tnHw3VtMMgP7b-23" value="ARSALAN.JOB_HISTORY" style="shape=table;startSize=30;container=1;collapsible=1;childLayout=tableLayout;fixedRows=1;rowLines=0;fontStyle=1;align=center;resizeLast=1;rounded=0;" parent="1" vertex="1">
          <mxGeometry x="40" y="80" width="240" height="200" as="geometry" />
        </mxCell>
        <mxCell id="C-vyLk0tnHw3VtMMgP7b-24" value="" style="shape=partialRectangle;collapsible=0;dropTarget=0;pointerEvents=0;fillColor=none;points=[[0,0.5],[1,0.5]];portConstraint=eastwest;top=0;left=0;right=0;bottom=1;rounded=0;" parent="C-vyLk0tnHw3VtMMgP7b-23" vertex="1">
          <mxGeometry y="30" width="240" height="50" as="geometry" />
        </mxCell>
        <mxCell id="C-vyLk0tnHw3VtMMgP7b-25" value="PK&#xa;FK" style="shape=partialRectangle;overflow=hidden;connectable=0;fillColor=none;top=0;left=0;bottom=0;right=0;fontStyle=1;rounded=0;" parent="C-vyLk0tnHw3VtMMgP7b-24" vertex="1">
          <mxGeometry width="30" height="50" as="geometry">
            <mxRectangle width="30" height="50" as="alternateBounds" />
          </mxGeometry>
        </mxCell>
        <mxCell id="C-vyLk0tnHw3VtMMgP7b-26" value="Job History ID&#xa;" style="shape=partialRectangle;overflow=hidden;connectable=0;fillColor=none;top=0;left=0;bottom=0;right=0;align=left;spacingLeft=6;fontStyle=5;rounded=0;" parent="C-vyLk0tnHw3VtMMgP7b-24" vertex="1">
          <mxGeometry x="30" width="210" height="50" as="geometry">
            <mxRectangle width="210" height="50" as="alternateBounds" />
          </mxGeometry>
        </mxCell>
        <mxCell id="vtek3SlrAaMKgHhZsIxQ-223" value="" style="shape=partialRectangle;collapsible=0;dropTarget=0;pointerEvents=0;fillColor=none;top=0;left=0;bottom=1;right=0;points=[[0,0.5],[1,0.5]];portConstraint=eastwest;rounded=0;sketch=0;" vertex="1" parent="C-vyLk0tnHw3VtMMgP7b-23">
          <mxGeometry y="80" width="240" height="30" as="geometry" />
        </mxCell>
        <mxCell id="vtek3SlrAaMKgHhZsIxQ-224" value="PK" style="shape=partialRectangle;connectable=0;fillColor=none;top=0;left=0;bottom=0;right=0;fontStyle=1;overflow=hidden;rounded=0;sketch=0;" vertex="1" parent="vtek3SlrAaMKgHhZsIxQ-223">
          <mxGeometry width="30" height="30" as="geometry">
            <mxRectangle width="30" height="30" as="alternateBounds" />
          </mxGeometry>
        </mxCell>
        <mxCell id="vtek3SlrAaMKgHhZsIxQ-225" value="start_id" style="shape=partialRectangle;connectable=0;fillColor=none;top=0;left=0;bottom=0;right=0;align=left;spacingLeft=6;fontStyle=5;overflow=hidden;rounded=0;sketch=0;" vertex="1" parent="vtek3SlrAaMKgHhZsIxQ-223">
          <mxGeometry x="30" width="210" height="30" as="geometry">
            <mxRectangle width="210" height="30" as="alternateBounds" />
          </mxGeometry>
        </mxCell>
        <mxCell id="vtek3SlrAaMKgHhZsIxQ-84" value="" style="shape=partialRectangle;collapsible=0;dropTarget=0;pointerEvents=0;fillColor=none;top=0;left=0;bottom=0;right=0;points=[[0,0.5],[1,0.5]];portConstraint=eastwest;rounded=0;sketch=0;" vertex="1" parent="C-vyLk0tnHw3VtMMgP7b-23">
          <mxGeometry y="110" width="240" height="30" as="geometry" />
        </mxCell>
        <mxCell id="vtek3SlrAaMKgHhZsIxQ-85" value="" style="shape=partialRectangle;connectable=0;fillColor=none;top=0;left=0;bottom=0;right=0;fontStyle=0;overflow=hidden;rounded=0;sketch=0;" vertex="1" parent="vtek3SlrAaMKgHhZsIxQ-84">
          <mxGeometry width="30" height="30" as="geometry">
            <mxRectangle width="30" height="30" as="alternateBounds" />
          </mxGeometry>
        </mxCell>
        <mxCell id="vtek3SlrAaMKgHhZsIxQ-86" value="end_date" style="shape=partialRectangle;connectable=0;fillColor=none;top=0;left=0;bottom=0;right=0;align=left;spacingLeft=6;fontStyle=0;overflow=hidden;rounded=0;sketch=0;" vertex="1" parent="vtek3SlrAaMKgHhZsIxQ-84">
          <mxGeometry x="30" width="210" height="30" as="geometry">
            <mxRectangle width="210" height="30" as="alternateBounds" />
          </mxGeometry>
        </mxCell>
        <mxCell id="vtek3SlrAaMKgHhZsIxQ-88" value="" style="shape=partialRectangle;collapsible=0;dropTarget=0;pointerEvents=0;fillColor=none;top=0;left=0;bottom=0;right=0;points=[[0,0.5],[1,0.5]];portConstraint=eastwest;rounded=0;sketch=0;" vertex="1" parent="C-vyLk0tnHw3VtMMgP7b-23">
          <mxGeometry y="140" width="240" height="30" as="geometry" />
        </mxCell>
        <mxCell id="vtek3SlrAaMKgHhZsIxQ-89" value="FK" style="shape=partialRectangle;connectable=0;fillColor=none;top=0;left=0;bottom=0;right=0;fontStyle=0;overflow=hidden;rounded=0;sketch=0;" vertex="1" parent="vtek3SlrAaMKgHhZsIxQ-88">
          <mxGeometry width="30" height="30" as="geometry">
            <mxRectangle width="30" height="30" as="alternateBounds" />
          </mxGeometry>
        </mxCell>
        <mxCell id="vtek3SlrAaMKgHhZsIxQ-90" value="job_id" style="shape=partialRectangle;connectable=0;fillColor=none;top=0;left=0;bottom=0;right=0;align=left;spacingLeft=6;fontStyle=0;overflow=hidden;rounded=0;sketch=0;" vertex="1" parent="vtek3SlrAaMKgHhZsIxQ-88">
          <mxGeometry x="30" width="210" height="30" as="geometry">
            <mxRectangle width="210" height="30" as="alternateBounds" />
          </mxGeometry>
        </mxCell>
        <mxCell id="vtek3SlrAaMKgHhZsIxQ-92" value="" style="shape=partialRectangle;collapsible=0;dropTarget=0;pointerEvents=0;fillColor=none;top=0;left=0;bottom=0;right=0;points=[[0,0.5],[1,0.5]];portConstraint=eastwest;rounded=0;sketch=0;" vertex="1" parent="C-vyLk0tnHw3VtMMgP7b-23">
          <mxGeometry y="170" width="240" height="30" as="geometry" />
        </mxCell>
        <mxCell id="vtek3SlrAaMKgHhZsIxQ-93" value="FK" style="shape=partialRectangle;connectable=0;fillColor=none;top=0;left=0;bottom=0;right=0;fontStyle=0;overflow=hidden;rounded=0;sketch=0;" vertex="1" parent="vtek3SlrAaMKgHhZsIxQ-92">
          <mxGeometry width="30" height="30" as="geometry">
            <mxRectangle width="30" height="30" as="alternateBounds" />
          </mxGeometry>
        </mxCell>
        <mxCell id="vtek3SlrAaMKgHhZsIxQ-94" value="department_id" style="shape=partialRectangle;connectable=0;fillColor=none;top=0;left=0;bottom=0;right=0;align=left;spacingLeft=6;fontStyle=0;overflow=hidden;rounded=0;sketch=0;" vertex="1" parent="vtek3SlrAaMKgHhZsIxQ-92">
          <mxGeometry x="30" width="210" height="30" as="geometry">
            <mxRectangle width="210" height="30" as="alternateBounds" />
          </mxGeometry>
        </mxCell>
        <mxCell id="vtek3SlrAaMKgHhZsIxQ-12" value="ARSALAN.DEPARTMENT" style="shape=table;startSize=30;container=1;collapsible=1;childLayout=tableLayout;fixedRows=1;rowLines=0;fontStyle=1;align=center;resizeLast=1;rounded=0;" vertex="1" parent="1">
          <mxGeometry x="320" y="40" width="240" height="160" as="geometry" />
        </mxCell>
        <mxCell id="vtek3SlrAaMKgHhZsIxQ-13" value="" style="shape=partialRectangle;collapsible=0;dropTarget=0;pointerEvents=0;fillColor=none;points=[[0,0.5],[1,0.5]];portConstraint=eastwest;top=0;left=0;right=0;bottom=1;rounded=0;" vertex="1" parent="vtek3SlrAaMKgHhZsIxQ-12">
          <mxGeometry y="30" width="240" height="30" as="geometry" />
        </mxCell>
        <mxCell id="vtek3SlrAaMKgHhZsIxQ-14" value="PK" style="shape=partialRectangle;overflow=hidden;connectable=0;fillColor=none;top=0;left=0;bottom=0;right=0;fontStyle=1;rounded=0;" vertex="1" parent="vtek3SlrAaMKgHhZsIxQ-13">
          <mxGeometry width="30" height="30" as="geometry">
            <mxRectangle width="30" height="30" as="alternateBounds" />
          </mxGeometry>
        </mxCell>
        <mxCell id="vtek3SlrAaMKgHhZsIxQ-15" value="Department ID" style="shape=partialRectangle;overflow=hidden;connectable=0;fillColor=none;top=0;left=0;bottom=0;right=0;align=left;spacingLeft=6;fontStyle=5;rounded=0;" vertex="1" parent="vtek3SlrAaMKgHhZsIxQ-13">
          <mxGeometry x="30" width="210" height="30" as="geometry">
            <mxRectangle width="210" height="30" as="alternateBounds" />
          </mxGeometry>
        </mxCell>
        <mxCell id="vtek3SlrAaMKgHhZsIxQ-179" value="" style="shape=partialRectangle;collapsible=0;dropTarget=0;pointerEvents=0;fillColor=none;top=0;left=0;bottom=0;right=0;points=[[0,0.5],[1,0.5]];portConstraint=eastwest;rounded=0;sketch=0;" vertex="1" parent="vtek3SlrAaMKgHhZsIxQ-12">
          <mxGeometry y="60" width="240" height="30" as="geometry" />
        </mxCell>
        <mxCell id="vtek3SlrAaMKgHhZsIxQ-180" value="" style="shape=partialRectangle;connectable=0;fillColor=none;top=0;left=0;bottom=0;right=0;fontStyle=0;overflow=hidden;rounded=0;sketch=0;" vertex="1" parent="vtek3SlrAaMKgHhZsIxQ-179">
          <mxGeometry width="30" height="30" as="geometry">
            <mxRectangle width="30" height="30" as="alternateBounds" />
          </mxGeometry>
        </mxCell>
        <mxCell id="vtek3SlrAaMKgHhZsIxQ-181" value="department_name" style="shape=partialRectangle;connectable=0;fillColor=none;top=0;left=0;bottom=0;right=0;align=left;spacingLeft=6;fontStyle=0;overflow=hidden;rounded=0;sketch=0;" vertex="1" parent="vtek3SlrAaMKgHhZsIxQ-179">
          <mxGeometry x="30" width="210" height="30" as="geometry">
            <mxRectangle width="210" height="30" as="alternateBounds" />
          </mxGeometry>
        </mxCell>
        <mxCell id="vtek3SlrAaMKgHhZsIxQ-183" value="" style="shape=partialRectangle;collapsible=0;dropTarget=0;pointerEvents=0;fillColor=none;top=0;left=0;bottom=0;right=0;points=[[0,0.5],[1,0.5]];portConstraint=eastwest;rounded=0;sketch=0;" vertex="1" parent="vtek3SlrAaMKgHhZsIxQ-12">
          <mxGeometry y="90" width="240" height="30" as="geometry" />
        </mxCell>
        <mxCell id="vtek3SlrAaMKgHhZsIxQ-184" value="FK" style="shape=partialRectangle;connectable=0;fillColor=none;top=0;left=0;bottom=0;right=0;fontStyle=0;overflow=hidden;rounded=0;sketch=0;" vertex="1" parent="vtek3SlrAaMKgHhZsIxQ-183">
          <mxGeometry width="30" height="30" as="geometry">
            <mxRectangle width="30" height="30" as="alternateBounds" />
          </mxGeometry>
        </mxCell>
        <mxCell id="vtek3SlrAaMKgHhZsIxQ-185" value="manager_id" style="shape=partialRectangle;connectable=0;fillColor=none;top=0;left=0;bottom=0;right=0;align=left;spacingLeft=6;fontStyle=0;overflow=hidden;rounded=0;sketch=0;" vertex="1" parent="vtek3SlrAaMKgHhZsIxQ-183">
          <mxGeometry x="30" width="210" height="30" as="geometry">
            <mxRectangle width="210" height="30" as="alternateBounds" />
          </mxGeometry>
        </mxCell>
        <mxCell id="vtek3SlrAaMKgHhZsIxQ-187" value="" style="shape=partialRectangle;collapsible=0;dropTarget=0;pointerEvents=0;fillColor=none;top=0;left=0;bottom=0;right=0;points=[[0,0.5],[1,0.5]];portConstraint=eastwest;rounded=0;sketch=0;" vertex="1" parent="vtek3SlrAaMKgHhZsIxQ-12">
          <mxGeometry y="120" width="240" height="30" as="geometry" />
        </mxCell>
        <mxCell id="vtek3SlrAaMKgHhZsIxQ-188" value="FK" style="shape=partialRectangle;connectable=0;fillColor=none;top=0;left=0;bottom=0;right=0;fontStyle=0;overflow=hidden;rounded=0;sketch=0;" vertex="1" parent="vtek3SlrAaMKgHhZsIxQ-187">
          <mxGeometry width="30" height="30" as="geometry">
            <mxRectangle width="30" height="30" as="alternateBounds" />
          </mxGeometry>
        </mxCell>
        <mxCell id="vtek3SlrAaMKgHhZsIxQ-189" value="location_id" style="shape=partialRectangle;connectable=0;fillColor=none;top=0;left=0;bottom=0;right=0;align=left;spacingLeft=6;fontStyle=0;overflow=hidden;rounded=0;sketch=0;" vertex="1" parent="vtek3SlrAaMKgHhZsIxQ-187">
          <mxGeometry x="30" width="210" height="30" as="geometry">
            <mxRectangle width="210" height="30" as="alternateBounds" />
          </mxGeometry>
        </mxCell>
        <mxCell id="vtek3SlrAaMKgHhZsIxQ-19" value="ARSALAN.LOCATIONS" style="shape=table;startSize=30;container=1;collapsible=1;childLayout=tableLayout;fixedRows=1;rowLines=0;fontStyle=1;align=center;resizeLast=1;rounded=0;" vertex="1" parent="1">
          <mxGeometry x="600" y="80" width="240" height="210" as="geometry" />
        </mxCell>
        <mxCell id="vtek3SlrAaMKgHhZsIxQ-20" value="" style="shape=partialRectangle;collapsible=0;dropTarget=0;pointerEvents=0;fillColor=none;points=[[0,0.5],[1,0.5]];portConstraint=eastwest;top=0;left=0;right=0;bottom=1;rounded=0;" vertex="1" parent="vtek3SlrAaMKgHhZsIxQ-19">
          <mxGeometry y="30" width="240" height="30" as="geometry" />
        </mxCell>
        <mxCell id="vtek3SlrAaMKgHhZsIxQ-21" value="PK" style="shape=partialRectangle;overflow=hidden;connectable=0;fillColor=none;top=0;left=0;bottom=0;right=0;fontStyle=1;rounded=0;" vertex="1" parent="vtek3SlrAaMKgHhZsIxQ-20">
          <mxGeometry width="30" height="30" as="geometry">
            <mxRectangle width="30" height="30" as="alternateBounds" />
          </mxGeometry>
        </mxCell>
        <mxCell id="vtek3SlrAaMKgHhZsIxQ-22" value="Location ID" style="shape=partialRectangle;overflow=hidden;connectable=0;fillColor=none;top=0;left=0;bottom=0;right=0;align=left;spacingLeft=6;fontStyle=5;rounded=0;" vertex="1" parent="vtek3SlrAaMKgHhZsIxQ-20">
          <mxGeometry x="30" width="210" height="30" as="geometry">
            <mxRectangle width="210" height="30" as="alternateBounds" />
          </mxGeometry>
        </mxCell>
        <mxCell id="vtek3SlrAaMKgHhZsIxQ-203" value="" style="shape=partialRectangle;collapsible=0;dropTarget=0;pointerEvents=0;fillColor=none;top=0;left=0;bottom=0;right=0;points=[[0,0.5],[1,0.5]];portConstraint=eastwest;rounded=0;sketch=0;" vertex="1" parent="vtek3SlrAaMKgHhZsIxQ-19">
          <mxGeometry y="60" width="240" height="30" as="geometry" />
        </mxCell>
        <mxCell id="vtek3SlrAaMKgHhZsIxQ-204" value="" style="shape=partialRectangle;connectable=0;fillColor=none;top=0;left=0;bottom=0;right=0;fontStyle=0;overflow=hidden;rounded=0;sketch=0;" vertex="1" parent="vtek3SlrAaMKgHhZsIxQ-203">
          <mxGeometry width="30" height="30" as="geometry">
            <mxRectangle width="30" height="30" as="alternateBounds" />
          </mxGeometry>
        </mxCell>
        <mxCell id="vtek3SlrAaMKgHhZsIxQ-205" value="street_address" style="shape=partialRectangle;connectable=0;fillColor=none;top=0;left=0;bottom=0;right=0;align=left;spacingLeft=6;fontStyle=0;overflow=hidden;rounded=0;sketch=0;" vertex="1" parent="vtek3SlrAaMKgHhZsIxQ-203">
          <mxGeometry x="30" width="210" height="30" as="geometry">
            <mxRectangle width="210" height="30" as="alternateBounds" />
          </mxGeometry>
        </mxCell>
        <mxCell id="vtek3SlrAaMKgHhZsIxQ-207" value="" style="shape=partialRectangle;collapsible=0;dropTarget=0;pointerEvents=0;fillColor=none;top=0;left=0;bottom=0;right=0;points=[[0,0.5],[1,0.5]];portConstraint=eastwest;rounded=0;sketch=0;" vertex="1" parent="vtek3SlrAaMKgHhZsIxQ-19">
          <mxGeometry y="90" width="240" height="30" as="geometry" />
        </mxCell>
        <mxCell id="vtek3SlrAaMKgHhZsIxQ-208" value="" style="shape=partialRectangle;connectable=0;fillColor=none;top=0;left=0;bottom=0;right=0;fontStyle=0;overflow=hidden;rounded=0;sketch=0;" vertex="1" parent="vtek3SlrAaMKgHhZsIxQ-207">
          <mxGeometry width="30" height="30" as="geometry">
            <mxRectangle width="30" height="30" as="alternateBounds" />
          </mxGeometry>
        </mxCell>
        <mxCell id="vtek3SlrAaMKgHhZsIxQ-209" value="postal_code" style="shape=partialRectangle;connectable=0;fillColor=none;top=0;left=0;bottom=0;right=0;align=left;spacingLeft=6;fontStyle=0;overflow=hidden;rounded=0;sketch=0;" vertex="1" parent="vtek3SlrAaMKgHhZsIxQ-207">
          <mxGeometry x="30" width="210" height="30" as="geometry">
            <mxRectangle width="210" height="30" as="alternateBounds" />
          </mxGeometry>
        </mxCell>
        <mxCell id="vtek3SlrAaMKgHhZsIxQ-211" value="" style="shape=partialRectangle;collapsible=0;dropTarget=0;pointerEvents=0;fillColor=none;top=0;left=0;bottom=0;right=0;points=[[0,0.5],[1,0.5]];portConstraint=eastwest;rounded=0;sketch=0;" vertex="1" parent="vtek3SlrAaMKgHhZsIxQ-19">
          <mxGeometry y="120" width="240" height="30" as="geometry" />
        </mxCell>
        <mxCell id="vtek3SlrAaMKgHhZsIxQ-212" value="" style="shape=partialRectangle;connectable=0;fillColor=none;top=0;left=0;bottom=0;right=0;fontStyle=0;overflow=hidden;rounded=0;sketch=0;" vertex="1" parent="vtek3SlrAaMKgHhZsIxQ-211">
          <mxGeometry width="30" height="30" as="geometry">
            <mxRectangle width="30" height="30" as="alternateBounds" />
          </mxGeometry>
        </mxCell>
        <mxCell id="vtek3SlrAaMKgHhZsIxQ-213" value="city" style="shape=partialRectangle;connectable=0;fillColor=none;top=0;left=0;bottom=0;right=0;align=left;spacingLeft=6;fontStyle=0;overflow=hidden;rounded=0;sketch=0;" vertex="1" parent="vtek3SlrAaMKgHhZsIxQ-211">
          <mxGeometry x="30" width="210" height="30" as="geometry">
            <mxRectangle width="210" height="30" as="alternateBounds" />
          </mxGeometry>
        </mxCell>
        <mxCell id="vtek3SlrAaMKgHhZsIxQ-215" value="" style="shape=partialRectangle;collapsible=0;dropTarget=0;pointerEvents=0;fillColor=none;top=0;left=0;bottom=0;right=0;points=[[0,0.5],[1,0.5]];portConstraint=eastwest;rounded=0;sketch=0;" vertex="1" parent="vtek3SlrAaMKgHhZsIxQ-19">
          <mxGeometry y="150" width="240" height="30" as="geometry" />
        </mxCell>
        <mxCell id="vtek3SlrAaMKgHhZsIxQ-216" value="" style="shape=partialRectangle;connectable=0;fillColor=none;top=0;left=0;bottom=0;right=0;fontStyle=0;overflow=hidden;rounded=0;sketch=0;" vertex="1" parent="vtek3SlrAaMKgHhZsIxQ-215">
          <mxGeometry width="30" height="30" as="geometry">
            <mxRectangle width="30" height="30" as="alternateBounds" />
          </mxGeometry>
        </mxCell>
        <mxCell id="vtek3SlrAaMKgHhZsIxQ-217" value="state_province" style="shape=partialRectangle;connectable=0;fillColor=none;top=0;left=0;bottom=0;right=0;align=left;spacingLeft=6;fontStyle=0;overflow=hidden;rounded=0;sketch=0;" vertex="1" parent="vtek3SlrAaMKgHhZsIxQ-215">
          <mxGeometry x="30" width="210" height="30" as="geometry">
            <mxRectangle width="210" height="30" as="alternateBounds" />
          </mxGeometry>
        </mxCell>
        <mxCell id="vtek3SlrAaMKgHhZsIxQ-219" value="" style="shape=partialRectangle;collapsible=0;dropTarget=0;pointerEvents=0;fillColor=none;top=0;left=0;bottom=0;right=0;points=[[0,0.5],[1,0.5]];portConstraint=eastwest;rounded=0;sketch=0;" vertex="1" parent="vtek3SlrAaMKgHhZsIxQ-19">
          <mxGeometry y="180" width="240" height="30" as="geometry" />
        </mxCell>
        <mxCell id="vtek3SlrAaMKgHhZsIxQ-220" value="FK" style="shape=partialRectangle;connectable=0;fillColor=none;top=0;left=0;bottom=0;right=0;fontStyle=0;overflow=hidden;rounded=0;sketch=0;" vertex="1" parent="vtek3SlrAaMKgHhZsIxQ-219">
          <mxGeometry width="30" height="30" as="geometry">
            <mxRectangle width="30" height="30" as="alternateBounds" />
          </mxGeometry>
        </mxCell>
        <mxCell id="vtek3SlrAaMKgHhZsIxQ-221" value="country_id" style="shape=partialRectangle;connectable=0;fillColor=none;top=0;left=0;bottom=0;right=0;align=left;spacingLeft=6;fontStyle=0;overflow=hidden;rounded=0;sketch=0;" vertex="1" parent="vtek3SlrAaMKgHhZsIxQ-219">
          <mxGeometry x="30" width="210" height="30" as="geometry">
            <mxRectangle width="210" height="30" as="alternateBounds" />
          </mxGeometry>
        </mxCell>
        <mxCell id="vtek3SlrAaMKgHhZsIxQ-27" value="" style="endArrow=ERmany;startArrow=none;endFill=0;startFill=0;entryX=1.008;entryY=0.094;entryDx=0;entryDy=0;entryPerimeter=0;edgeStyle=elbowEdgeStyle;rounded=0;exitX=-0.012;exitY=0.1;exitDx=0;exitDy=0;exitPerimeter=0;" edge="1" parent="1" source="vtek3SlrAaMKgHhZsIxQ-19" target="vtek3SlrAaMKgHhZsIxQ-12">
          <mxGeometry width="100" height="100" relative="1" as="geometry">
            <mxPoint x="569.04" y="158.99" as="sourcePoint" />
            <mxPoint x="540" y="200" as="targetPoint" />
          </mxGeometry>
        </mxCell>
        <mxCell id="vtek3SlrAaMKgHhZsIxQ-35" value="ARSALAN.COUNTRIES" style="shape=table;startSize=30;container=1;collapsible=1;childLayout=tableLayout;fixedRows=1;rowLines=0;fontStyle=1;align=center;resizeLast=1;rounded=0;" vertex="1" parent="1">
          <mxGeometry x="600" y="320" width="240" height="120" as="geometry" />
        </mxCell>
        <mxCell id="vtek3SlrAaMKgHhZsIxQ-36" value="" style="shape=partialRectangle;collapsible=0;dropTarget=0;pointerEvents=0;fillColor=none;points=[[0,0.5],[1,0.5]];portConstraint=eastwest;top=0;left=0;right=0;bottom=1;rounded=0;" vertex="1" parent="vtek3SlrAaMKgHhZsIxQ-35">
          <mxGeometry y="30" width="240" height="30" as="geometry" />
        </mxCell>
        <mxCell id="vtek3SlrAaMKgHhZsIxQ-37" value="PK" style="shape=partialRectangle;overflow=hidden;connectable=0;fillColor=none;top=0;left=0;bottom=0;right=0;fontStyle=1;rounded=0;" vertex="1" parent="vtek3SlrAaMKgHhZsIxQ-36">
          <mxGeometry width="30" height="30" as="geometry">
            <mxRectangle width="30" height="30" as="alternateBounds" />
          </mxGeometry>
        </mxCell>
        <mxCell id="vtek3SlrAaMKgHhZsIxQ-38" value="Country ID" style="shape=partialRectangle;overflow=hidden;connectable=0;fillColor=none;top=0;left=0;bottom=0;right=0;align=left;spacingLeft=6;fontStyle=5;rounded=0;" vertex="1" parent="vtek3SlrAaMKgHhZsIxQ-36">
          <mxGeometry x="30" width="210" height="30" as="geometry">
            <mxRectangle width="210" height="30" as="alternateBounds" />
          </mxGeometry>
        </mxCell>
        <mxCell id="vtek3SlrAaMKgHhZsIxQ-191" value="" style="shape=partialRectangle;collapsible=0;dropTarget=0;pointerEvents=0;fillColor=none;top=0;left=0;bottom=0;right=0;points=[[0,0.5],[1,0.5]];portConstraint=eastwest;rounded=0;sketch=0;" vertex="1" parent="vtek3SlrAaMKgHhZsIxQ-35">
          <mxGeometry y="60" width="240" height="30" as="geometry" />
        </mxCell>
        <mxCell id="vtek3SlrAaMKgHhZsIxQ-192" value="" style="shape=partialRectangle;connectable=0;fillColor=none;top=0;left=0;bottom=0;right=0;fontStyle=0;overflow=hidden;rounded=0;sketch=0;" vertex="1" parent="vtek3SlrAaMKgHhZsIxQ-191">
          <mxGeometry width="30" height="30" as="geometry">
            <mxRectangle width="30" height="30" as="alternateBounds" />
          </mxGeometry>
        </mxCell>
        <mxCell id="vtek3SlrAaMKgHhZsIxQ-193" value="country_name" style="shape=partialRectangle;connectable=0;fillColor=none;top=0;left=0;bottom=0;right=0;align=left;spacingLeft=6;fontStyle=0;overflow=hidden;rounded=0;sketch=0;" vertex="1" parent="vtek3SlrAaMKgHhZsIxQ-191">
          <mxGeometry x="30" width="210" height="30" as="geometry">
            <mxRectangle width="210" height="30" as="alternateBounds" />
          </mxGeometry>
        </mxCell>
        <mxCell id="vtek3SlrAaMKgHhZsIxQ-199" value="" style="shape=partialRectangle;collapsible=0;dropTarget=0;pointerEvents=0;fillColor=none;top=0;left=0;bottom=0;right=0;points=[[0,0.5],[1,0.5]];portConstraint=eastwest;rounded=0;sketch=0;" vertex="1" parent="vtek3SlrAaMKgHhZsIxQ-35">
          <mxGeometry y="90" width="240" height="30" as="geometry" />
        </mxCell>
        <mxCell id="vtek3SlrAaMKgHhZsIxQ-200" value="FK" style="shape=partialRectangle;connectable=0;fillColor=none;top=0;left=0;bottom=0;right=0;fontStyle=0;overflow=hidden;rounded=0;sketch=0;" vertex="1" parent="vtek3SlrAaMKgHhZsIxQ-199">
          <mxGeometry width="30" height="30" as="geometry">
            <mxRectangle width="30" height="30" as="alternateBounds" />
          </mxGeometry>
        </mxCell>
        <mxCell id="vtek3SlrAaMKgHhZsIxQ-201" value="region_id" style="shape=partialRectangle;connectable=0;fillColor=none;top=0;left=0;bottom=0;right=0;align=left;spacingLeft=6;fontStyle=0;overflow=hidden;rounded=0;sketch=0;" vertex="1" parent="vtek3SlrAaMKgHhZsIxQ-199">
          <mxGeometry x="30" width="210" height="30" as="geometry">
            <mxRectangle width="210" height="30" as="alternateBounds" />
          </mxGeometry>
        </mxCell>
        <mxCell id="vtek3SlrAaMKgHhZsIxQ-42" value="ARSALAN.REGION" style="shape=table;startSize=30;container=1;collapsible=1;childLayout=tableLayout;fixedRows=1;rowLines=0;fontStyle=1;align=center;resizeLast=1;rounded=0;" vertex="1" parent="1">
          <mxGeometry x="600" y="480" width="240" height="100" as="geometry" />
        </mxCell>
        <mxCell id="vtek3SlrAaMKgHhZsIxQ-43" value="" style="shape=partialRectangle;collapsible=0;dropTarget=0;pointerEvents=0;fillColor=none;points=[[0,0.5],[1,0.5]];portConstraint=eastwest;top=0;left=0;right=0;bottom=1;rounded=0;" vertex="1" parent="vtek3SlrAaMKgHhZsIxQ-42">
          <mxGeometry y="30" width="240" height="30" as="geometry" />
        </mxCell>
        <mxCell id="vtek3SlrAaMKgHhZsIxQ-44" value="PK" style="shape=partialRectangle;overflow=hidden;connectable=0;fillColor=none;top=0;left=0;bottom=0;right=0;fontStyle=1;rounded=0;" vertex="1" parent="vtek3SlrAaMKgHhZsIxQ-43">
          <mxGeometry width="30" height="30" as="geometry">
            <mxRectangle width="30" height="30" as="alternateBounds" />
          </mxGeometry>
        </mxCell>
        <mxCell id="vtek3SlrAaMKgHhZsIxQ-45" value="Region ID" style="shape=partialRectangle;overflow=hidden;connectable=0;fillColor=none;top=0;left=0;bottom=0;right=0;align=left;spacingLeft=6;fontStyle=5;rounded=0;" vertex="1" parent="vtek3SlrAaMKgHhZsIxQ-43">
          <mxGeometry x="30" width="210" height="30" as="geometry">
            <mxRectangle width="210" height="30" as="alternateBounds" />
          </mxGeometry>
        </mxCell>
        <mxCell id="vtek3SlrAaMKgHhZsIxQ-175" value="" style="shape=partialRectangle;collapsible=0;dropTarget=0;pointerEvents=0;fillColor=none;top=0;left=0;bottom=0;right=0;points=[[0,0.5],[1,0.5]];portConstraint=eastwest;rounded=0;sketch=0;" vertex="1" parent="vtek3SlrAaMKgHhZsIxQ-42">
          <mxGeometry y="60" width="240" height="30" as="geometry" />
        </mxCell>
        <mxCell id="vtek3SlrAaMKgHhZsIxQ-176" value="" style="shape=partialRectangle;connectable=0;fillColor=none;top=0;left=0;bottom=0;right=0;fontStyle=0;overflow=hidden;rounded=0;sketch=0;" vertex="1" parent="vtek3SlrAaMKgHhZsIxQ-175">
          <mxGeometry width="30" height="30" as="geometry">
            <mxRectangle width="30" height="30" as="alternateBounds" />
          </mxGeometry>
        </mxCell>
        <mxCell id="vtek3SlrAaMKgHhZsIxQ-177" value="&#xa;region_name" style="shape=partialRectangle;connectable=0;fillColor=none;top=0;left=0;bottom=0;right=0;align=left;spacingLeft=6;fontStyle=0;overflow=hidden;rounded=0;sketch=0;" vertex="1" parent="vtek3SlrAaMKgHhZsIxQ-175">
          <mxGeometry x="30" width="210" height="30" as="geometry">
            <mxRectangle width="210" height="30" as="alternateBounds" />
          </mxGeometry>
        </mxCell>
        <mxCell id="vtek3SlrAaMKgHhZsIxQ-50" value="" style="endArrow=ERmany;startArrow=none;endFill=0;startFill=0;entryX=0.5;entryY=1;entryDx=0;entryDy=0;exitX=0.5;exitY=0;exitDx=0;exitDy=0;rounded=0;" edge="1" parent="1" source="vtek3SlrAaMKgHhZsIxQ-35" target="vtek3SlrAaMKgHhZsIxQ-19">
          <mxGeometry width="100" height="100" relative="1" as="geometry">
            <mxPoint x="610" y="140" as="sourcePoint" />
            <mxPoint x="569.04" y="79.00999999999999" as="targetPoint" />
          </mxGeometry>
        </mxCell>
        <mxCell id="vtek3SlrAaMKgHhZsIxQ-51" value="" style="endArrow=ERmany;startArrow=none;endFill=0;startFill=0;entryX=0.5;entryY=1;entryDx=0;entryDy=0;exitX=0.5;exitY=0;exitDx=0;exitDy=0;rounded=0;" edge="1" parent="1" source="vtek3SlrAaMKgHhZsIxQ-42" target="vtek3SlrAaMKgHhZsIxQ-35">
          <mxGeometry width="100" height="100" relative="1" as="geometry">
            <mxPoint x="730" y="190" as="sourcePoint" />
            <mxPoint x="730" y="230" as="targetPoint" />
          </mxGeometry>
        </mxCell>
        <mxCell id="vtek3SlrAaMKgHhZsIxQ-52" value="ARSALAN.EMPLOYEES" style="shape=table;startSize=30;container=1;collapsible=1;childLayout=tableLayout;fixedRows=1;rowLines=0;fontStyle=1;align=center;resizeLast=1;rounded=0;" vertex="1" parent="1">
          <mxGeometry x="320" y="240" width="240" height="400" as="geometry" />
        </mxCell>
        <mxCell id="vtek3SlrAaMKgHhZsIxQ-53" value="" style="shape=partialRectangle;collapsible=0;dropTarget=0;pointerEvents=0;fillColor=none;points=[[0,0.5],[1,0.5]];portConstraint=eastwest;top=0;left=0;right=0;bottom=1;rounded=0;" vertex="1" parent="vtek3SlrAaMKgHhZsIxQ-52">
          <mxGeometry y="30" width="240" height="30" as="geometry" />
        </mxCell>
        <mxCell id="vtek3SlrAaMKgHhZsIxQ-54" value="PK" style="shape=partialRectangle;overflow=hidden;connectable=0;fillColor=none;top=0;left=0;bottom=0;right=0;fontStyle=1;rounded=0;" vertex="1" parent="vtek3SlrAaMKgHhZsIxQ-53">
          <mxGeometry width="30" height="30" as="geometry">
            <mxRectangle width="30" height="30" as="alternateBounds" />
          </mxGeometry>
        </mxCell>
        <mxCell id="vtek3SlrAaMKgHhZsIxQ-55" value="Employees ID" style="shape=partialRectangle;overflow=hidden;connectable=0;fillColor=none;top=0;left=0;bottom=0;right=0;align=left;spacingLeft=6;fontStyle=5;rounded=0;" vertex="1" parent="vtek3SlrAaMKgHhZsIxQ-53">
          <mxGeometry x="30" width="210" height="30" as="geometry">
            <mxRectangle width="210" height="30" as="alternateBounds" />
          </mxGeometry>
        </mxCell>
        <mxCell id="vtek3SlrAaMKgHhZsIxQ-69" value="" style="endArrow=ERmany;startArrow=none;endFill=0;startFill=0;exitX=1;exitY=0.5;exitDx=0;exitDy=0;entryX=1;entryY=0.25;entryDx=0;entryDy=0;edgeStyle=entityRelationEdgeStyle;elbow=vertical;rounded=0;" edge="1" parent="vtek3SlrAaMKgHhZsIxQ-52" target="vtek3SlrAaMKgHhZsIxQ-52">
          <mxGeometry width="100" height="100" relative="1" as="geometry">
            <mxPoint x="240" y="270" as="sourcePoint" />
            <mxPoint x="-140" y="40" as="targetPoint" />
          </mxGeometry>
        </mxCell>
        <mxCell id="vtek3SlrAaMKgHhZsIxQ-130" value="" style="shape=partialRectangle;collapsible=0;dropTarget=0;pointerEvents=0;fillColor=none;top=0;left=0;bottom=0;right=0;points=[[0,0.5],[1,0.5]];portConstraint=eastwest;rounded=0;sketch=0;" vertex="1" parent="vtek3SlrAaMKgHhZsIxQ-52">
          <mxGeometry y="60" width="240" height="30" as="geometry" />
        </mxCell>
        <mxCell id="vtek3SlrAaMKgHhZsIxQ-131" value="" style="shape=partialRectangle;connectable=0;fillColor=none;top=0;left=0;bottom=0;right=0;fontStyle=0;overflow=hidden;rounded=0;sketch=0;" vertex="1" parent="vtek3SlrAaMKgHhZsIxQ-130">
          <mxGeometry width="30" height="30" as="geometry">
            <mxRectangle width="30" height="30" as="alternateBounds" />
          </mxGeometry>
        </mxCell>
        <mxCell id="vtek3SlrAaMKgHhZsIxQ-132" value="last_name" style="shape=partialRectangle;connectable=0;fillColor=none;top=0;left=0;bottom=0;right=0;align=left;spacingLeft=6;fontStyle=0;overflow=hidden;rounded=0;sketch=0;" vertex="1" parent="vtek3SlrAaMKgHhZsIxQ-130">
          <mxGeometry x="30" width="210" height="30" as="geometry">
            <mxRectangle width="210" height="30" as="alternateBounds" />
          </mxGeometry>
        </mxCell>
        <mxCell id="vtek3SlrAaMKgHhZsIxQ-136" value="" style="shape=partialRectangle;collapsible=0;dropTarget=0;pointerEvents=0;fillColor=none;top=0;left=0;bottom=0;right=0;points=[[0,0.5],[1,0.5]];portConstraint=eastwest;rounded=0;sketch=0;" vertex="1" parent="vtek3SlrAaMKgHhZsIxQ-52">
          <mxGeometry y="90" width="240" height="30" as="geometry" />
        </mxCell>
        <mxCell id="vtek3SlrAaMKgHhZsIxQ-137" value="" style="shape=partialRectangle;connectable=0;fillColor=none;top=0;left=0;bottom=0;right=0;fontStyle=0;overflow=hidden;rounded=0;sketch=0;" vertex="1" parent="vtek3SlrAaMKgHhZsIxQ-136">
          <mxGeometry width="30" height="30" as="geometry">
            <mxRectangle width="30" height="30" as="alternateBounds" />
          </mxGeometry>
        </mxCell>
        <mxCell id="vtek3SlrAaMKgHhZsIxQ-138" value="first_name" style="shape=partialRectangle;connectable=0;fillColor=none;top=0;left=0;bottom=0;right=0;align=left;spacingLeft=6;fontStyle=0;overflow=hidden;rounded=0;sketch=0;" vertex="1" parent="vtek3SlrAaMKgHhZsIxQ-136">
          <mxGeometry x="30" width="210" height="30" as="geometry">
            <mxRectangle width="210" height="30" as="alternateBounds" />
          </mxGeometry>
        </mxCell>
        <mxCell id="vtek3SlrAaMKgHhZsIxQ-139" value="" style="shape=partialRectangle;collapsible=0;dropTarget=0;pointerEvents=0;fillColor=none;top=0;left=0;bottom=0;right=0;points=[[0,0.5],[1,0.5]];portConstraint=eastwest;rounded=0;sketch=0;" vertex="1" parent="vtek3SlrAaMKgHhZsIxQ-52">
          <mxGeometry y="120" width="240" height="30" as="geometry" />
        </mxCell>
        <mxCell id="vtek3SlrAaMKgHhZsIxQ-140" value="" style="shape=partialRectangle;connectable=0;fillColor=none;top=0;left=0;bottom=0;right=0;fontStyle=0;overflow=hidden;rounded=0;sketch=0;" vertex="1" parent="vtek3SlrAaMKgHhZsIxQ-139">
          <mxGeometry width="30" height="30" as="geometry">
            <mxRectangle width="30" height="30" as="alternateBounds" />
          </mxGeometry>
        </mxCell>
        <mxCell id="vtek3SlrAaMKgHhZsIxQ-141" value="email" style="shape=partialRectangle;connectable=0;fillColor=none;top=0;left=0;bottom=0;right=0;align=left;spacingLeft=6;fontStyle=0;overflow=hidden;rounded=0;sketch=0;" vertex="1" parent="vtek3SlrAaMKgHhZsIxQ-139">
          <mxGeometry x="30" width="210" height="30" as="geometry">
            <mxRectangle width="210" height="30" as="alternateBounds" />
          </mxGeometry>
        </mxCell>
        <mxCell id="vtek3SlrAaMKgHhZsIxQ-59" value="ARSALAN.JOBS" style="shape=table;startSize=30;container=1;collapsible=1;childLayout=tableLayout;fixedRows=1;rowLines=0;fontStyle=1;align=center;resizeLast=1;rounded=0;" vertex="1" parent="1">
          <mxGeometry x="40" y="320" width="240" height="160" as="geometry" />
        </mxCell>
        <mxCell id="vtek3SlrAaMKgHhZsIxQ-60" value="" style="shape=partialRectangle;collapsible=0;dropTarget=0;pointerEvents=0;fillColor=none;points=[[0,0.5],[1,0.5]];portConstraint=eastwest;top=0;left=0;right=0;bottom=1;rounded=0;" vertex="1" parent="vtek3SlrAaMKgHhZsIxQ-59">
          <mxGeometry y="30" width="240" height="30" as="geometry" />
        </mxCell>
        <mxCell id="vtek3SlrAaMKgHhZsIxQ-61" value="PK" style="shape=partialRectangle;overflow=hidden;connectable=0;fillColor=none;top=0;left=0;bottom=0;right=0;fontStyle=1;rounded=0;" vertex="1" parent="vtek3SlrAaMKgHhZsIxQ-60">
          <mxGeometry width="30" height="30" as="geometry">
            <mxRectangle width="30" height="30" as="alternateBounds" />
          </mxGeometry>
        </mxCell>
        <mxCell id="vtek3SlrAaMKgHhZsIxQ-62" value="Job ID" style="shape=partialRectangle;overflow=hidden;connectable=0;fillColor=none;top=0;left=0;bottom=0;right=0;align=left;spacingLeft=6;fontStyle=5;rounded=0;" vertex="1" parent="vtek3SlrAaMKgHhZsIxQ-60">
          <mxGeometry x="30" width="210" height="30" as="geometry">
            <mxRectangle width="210" height="30" as="alternateBounds" />
          </mxGeometry>
        </mxCell>
        <mxCell id="vtek3SlrAaMKgHhZsIxQ-100" value="" style="shape=partialRectangle;collapsible=0;dropTarget=0;pointerEvents=0;fillColor=none;top=0;left=0;bottom=0;right=0;points=[[0,0.5],[1,0.5]];portConstraint=eastwest;rounded=0;sketch=0;" vertex="1" parent="vtek3SlrAaMKgHhZsIxQ-59">
          <mxGeometry y="60" width="240" height="30" as="geometry" />
        </mxCell>
        <mxCell id="vtek3SlrAaMKgHhZsIxQ-101" value="" style="shape=partialRectangle;connectable=0;fillColor=none;top=0;left=0;bottom=0;right=0;fontStyle=0;overflow=hidden;rounded=0;sketch=0;" vertex="1" parent="vtek3SlrAaMKgHhZsIxQ-100">
          <mxGeometry width="30" height="30" as="geometry">
            <mxRectangle width="30" height="30" as="alternateBounds" />
          </mxGeometry>
        </mxCell>
        <mxCell id="vtek3SlrAaMKgHhZsIxQ-102" value="job_title" style="shape=partialRectangle;connectable=0;fillColor=none;top=0;left=0;bottom=0;right=0;align=left;spacingLeft=6;fontStyle=0;overflow=hidden;rounded=0;sketch=0;" vertex="1" parent="vtek3SlrAaMKgHhZsIxQ-100">
          <mxGeometry x="30" width="210" height="30" as="geometry">
            <mxRectangle width="210" height="30" as="alternateBounds" />
          </mxGeometry>
        </mxCell>
        <mxCell id="vtek3SlrAaMKgHhZsIxQ-104" value="" style="shape=partialRectangle;collapsible=0;dropTarget=0;pointerEvents=0;fillColor=none;top=0;left=0;bottom=0;right=0;points=[[0,0.5],[1,0.5]];portConstraint=eastwest;rounded=0;sketch=0;" vertex="1" parent="vtek3SlrAaMKgHhZsIxQ-59">
          <mxGeometry y="90" width="240" height="30" as="geometry" />
        </mxCell>
        <mxCell id="vtek3SlrAaMKgHhZsIxQ-105" value="" style="shape=partialRectangle;connectable=0;fillColor=none;top=0;left=0;bottom=0;right=0;fontStyle=0;overflow=hidden;rounded=0;sketch=0;" vertex="1" parent="vtek3SlrAaMKgHhZsIxQ-104">
          <mxGeometry width="30" height="30" as="geometry">
            <mxRectangle width="30" height="30" as="alternateBounds" />
          </mxGeometry>
        </mxCell>
        <mxCell id="vtek3SlrAaMKgHhZsIxQ-106" value="min_salary" style="shape=partialRectangle;connectable=0;fillColor=none;top=0;left=0;bottom=0;right=0;align=left;spacingLeft=6;fontStyle=0;overflow=hidden;rounded=0;sketch=0;" vertex="1" parent="vtek3SlrAaMKgHhZsIxQ-104">
          <mxGeometry x="30" width="210" height="30" as="geometry">
            <mxRectangle width="210" height="30" as="alternateBounds" />
          </mxGeometry>
        </mxCell>
        <mxCell id="vtek3SlrAaMKgHhZsIxQ-108" value="" style="shape=partialRectangle;collapsible=0;dropTarget=0;pointerEvents=0;fillColor=none;top=0;left=0;bottom=0;right=0;points=[[0,0.5],[1,0.5]];portConstraint=eastwest;rounded=0;sketch=0;" vertex="1" parent="vtek3SlrAaMKgHhZsIxQ-59">
          <mxGeometry y="120" width="240" height="30" as="geometry" />
        </mxCell>
        <mxCell id="vtek3SlrAaMKgHhZsIxQ-109" value="" style="shape=partialRectangle;connectable=0;fillColor=none;top=0;left=0;bottom=0;right=0;fontStyle=0;overflow=hidden;rounded=0;sketch=0;" vertex="1" parent="vtek3SlrAaMKgHhZsIxQ-108">
          <mxGeometry width="30" height="30" as="geometry">
            <mxRectangle width="30" height="30" as="alternateBounds" />
          </mxGeometry>
        </mxCell>
        <mxCell id="vtek3SlrAaMKgHhZsIxQ-110" value="max_salary" style="shape=partialRectangle;connectable=0;fillColor=none;top=0;left=0;bottom=0;right=0;align=left;spacingLeft=6;fontStyle=0;overflow=hidden;rounded=0;sketch=0;" vertex="1" parent="vtek3SlrAaMKgHhZsIxQ-108">
          <mxGeometry x="30" width="210" height="30" as="geometry">
            <mxRectangle width="210" height="30" as="alternateBounds" />
          </mxGeometry>
        </mxCell>
        <mxCell id="vtek3SlrAaMKgHhZsIxQ-66" value="" style="endArrow=ERmany;startArrow=none;endFill=0;startFill=0;exitX=0.5;exitY=0;exitDx=0;exitDy=0;entryX=0.5;entryY=1;entryDx=0;entryDy=0;rounded=0;" edge="1" parent="1" source="vtek3SlrAaMKgHhZsIxQ-59" target="C-vyLk0tnHw3VtMMgP7b-23">
          <mxGeometry width="100" height="100" relative="1" as="geometry">
            <mxPoint x="330" y="75" as="sourcePoint" />
            <mxPoint x="160" y="200" as="targetPoint" />
          </mxGeometry>
        </mxCell>
        <mxCell id="vtek3SlrAaMKgHhZsIxQ-67" value="" style="edgeStyle=elbowEdgeStyle;endArrow=ERmany;startArrow=none;endFill=0;startFill=0;exitX=0.008;exitY=0.041;exitDx=0;exitDy=0;entryX=1.004;entryY=0.075;entryDx=0;entryDy=0;exitPerimeter=0;rounded=0;entryPerimeter=0;" edge="1" parent="1" source="vtek3SlrAaMKgHhZsIxQ-52" target="vtek3SlrAaMKgHhZsIxQ-59">
          <mxGeometry width="100" height="100" relative="1" as="geometry">
            <mxPoint x="170" y="250" as="sourcePoint" />
            <mxPoint x="280" y="310" as="targetPoint" />
          </mxGeometry>
        </mxCell>
        <mxCell id="vtek3SlrAaMKgHhZsIxQ-68" value="" style="edgeStyle=elbowEdgeStyle;endArrow=ERmany;startArrow=none;endFill=0;startFill=0;exitX=1;exitY=0.5;exitDx=0;exitDy=0;entryX=0;entryY=0.5;entryDx=0;entryDy=0;rounded=0;" edge="1" parent="1" source="vtek3SlrAaMKgHhZsIxQ-60">
          <mxGeometry width="100" height="100" relative="1" as="geometry">
            <mxPoint x="170" y="250" as="sourcePoint" />
            <mxPoint x="320" y="510" as="targetPoint" />
          </mxGeometry>
        </mxCell>
        <mxCell id="vtek3SlrAaMKgHhZsIxQ-72" value="" style="endArrow=ERmany;startArrow=none;endFill=0;startFill=0;entryX=0.5;entryY=0;entryDx=0;entryDy=0;exitX=0.5;exitY=1;exitDx=0;exitDy=0;rounded=0;" edge="1" parent="1" source="vtek3SlrAaMKgHhZsIxQ-12" target="vtek3SlrAaMKgHhZsIxQ-52">
          <mxGeometry width="100" height="100" relative="1" as="geometry">
            <mxPoint x="620" y="150" as="sourcePoint" />
            <mxPoint x="579.04" y="89.00999999999999" as="targetPoint" />
          </mxGeometry>
        </mxCell>
        <mxCell id="vtek3SlrAaMKgHhZsIxQ-120" value="" style="shape=partialRectangle;collapsible=0;dropTarget=0;pointerEvents=0;fillColor=none;top=0;left=0;bottom=0;right=0;points=[[0,0.5],[1,0.5]];portConstraint=eastwest;rounded=0;sketch=0;" vertex="1" parent="1">
          <mxGeometry x="320" y="400" width="240" height="70" as="geometry" />
        </mxCell>
        <mxCell id="vtek3SlrAaMKgHhZsIxQ-121" value="" style="shape=partialRectangle;connectable=0;fillColor=none;top=0;left=0;bottom=0;right=0;fontStyle=0;overflow=hidden;rounded=0;sketch=0;" vertex="1" parent="vtek3SlrAaMKgHhZsIxQ-120">
          <mxGeometry width="30" height="14" as="geometry">
            <mxRectangle width="30" height="30" as="alternateBounds" />
          </mxGeometry>
        </mxCell>
        <mxCell id="vtek3SlrAaMKgHhZsIxQ-122" value="phone_number" style="shape=partialRectangle;connectable=0;fillColor=none;top=0;left=0;bottom=0;right=0;align=left;spacingLeft=6;fontStyle=0;overflow=hidden;rounded=0;sketch=0;" vertex="1" parent="vtek3SlrAaMKgHhZsIxQ-120">
          <mxGeometry x="30" width="210" height="14" as="geometry">
            <mxRectangle width="210" height="30" as="alternateBounds" />
          </mxGeometry>
        </mxCell>
        <mxCell id="vtek3SlrAaMKgHhZsIxQ-146" value="" style="shape=table;startSize=0;container=1;collapsible=1;childLayout=tableLayout;fixedRows=1;rowLines=0;fontStyle=0;align=center;resizeLast=1;strokeColor=none;fillColor=none;rounded=0;sketch=0;" vertex="1" parent="1">
          <mxGeometry x="320" y="425" width="180" height="30" as="geometry" />
        </mxCell>
        <mxCell id="vtek3SlrAaMKgHhZsIxQ-147" value="" style="shape=partialRectangle;collapsible=0;dropTarget=0;pointerEvents=0;fillColor=none;top=0;left=0;bottom=0;right=0;points=[[0,0.5],[1,0.5]];portConstraint=eastwest;rounded=0;sketch=0;" vertex="1" parent="vtek3SlrAaMKgHhZsIxQ-146">
          <mxGeometry width="180" height="30" as="geometry" />
        </mxCell>
        <mxCell id="vtek3SlrAaMKgHhZsIxQ-148" value="" style="shape=partialRectangle;connectable=0;fillColor=none;top=0;left=0;bottom=0;right=0;fontStyle=0;overflow=hidden;rounded=0;sketch=0;" vertex="1" parent="vtek3SlrAaMKgHhZsIxQ-147">
          <mxGeometry width="30" height="30" as="geometry">
            <mxRectangle width="30" height="30" as="alternateBounds" />
          </mxGeometry>
        </mxCell>
        <mxCell id="vtek3SlrAaMKgHhZsIxQ-149" value="hire_date" style="shape=partialRectangle;connectable=0;fillColor=none;top=0;left=0;bottom=0;right=0;align=left;spacingLeft=6;fontStyle=0;overflow=hidden;rounded=0;sketch=0;" vertex="1" parent="vtek3SlrAaMKgHhZsIxQ-147">
          <mxGeometry x="30" width="150" height="30" as="geometry">
            <mxRectangle width="150" height="30" as="alternateBounds" />
          </mxGeometry>
        </mxCell>
        <mxCell id="vtek3SlrAaMKgHhZsIxQ-150" value="" style="shape=table;startSize=0;container=1;collapsible=1;childLayout=tableLayout;fixedRows=1;rowLines=0;fontStyle=0;align=center;resizeLast=1;strokeColor=none;fillColor=none;rounded=0;sketch=0;" vertex="1" parent="1">
          <mxGeometry x="320" y="460" width="180" height="30" as="geometry" />
        </mxCell>
        <mxCell id="vtek3SlrAaMKgHhZsIxQ-151" value="" style="shape=partialRectangle;collapsible=0;dropTarget=0;pointerEvents=0;fillColor=none;top=0;left=0;bottom=0;right=0;points=[[0,0.5],[1,0.5]];portConstraint=eastwest;rounded=0;sketch=0;" vertex="1" parent="vtek3SlrAaMKgHhZsIxQ-150">
          <mxGeometry width="180" height="30" as="geometry" />
        </mxCell>
        <mxCell id="vtek3SlrAaMKgHhZsIxQ-152" value="FK" style="shape=partialRectangle;connectable=0;fillColor=none;top=0;left=0;bottom=0;right=0;fontStyle=0;overflow=hidden;rounded=0;sketch=0;" vertex="1" parent="vtek3SlrAaMKgHhZsIxQ-151">
          <mxGeometry width="30" height="30" as="geometry">
            <mxRectangle width="30" height="30" as="alternateBounds" />
          </mxGeometry>
        </mxCell>
        <mxCell id="vtek3SlrAaMKgHhZsIxQ-153" value="job_id" style="shape=partialRectangle;connectable=0;fillColor=none;top=0;left=0;bottom=0;right=0;align=left;spacingLeft=6;fontStyle=0;overflow=hidden;rounded=0;sketch=0;" vertex="1" parent="vtek3SlrAaMKgHhZsIxQ-151">
          <mxGeometry x="30" width="150" height="30" as="geometry">
            <mxRectangle width="150" height="30" as="alternateBounds" />
          </mxGeometry>
        </mxCell>
        <mxCell id="vtek3SlrAaMKgHhZsIxQ-154" value="" style="shape=table;startSize=0;container=1;collapsible=1;childLayout=tableLayout;fixedRows=1;rowLines=0;fontStyle=0;align=center;resizeLast=1;strokeColor=none;fillColor=none;rounded=0;sketch=0;" vertex="1" parent="1">
          <mxGeometry x="320" y="490" width="180" height="30" as="geometry" />
        </mxCell>
        <mxCell id="vtek3SlrAaMKgHhZsIxQ-155" value="" style="shape=partialRectangle;collapsible=0;dropTarget=0;pointerEvents=0;fillColor=none;top=0;left=0;bottom=0;right=0;points=[[0,0.5],[1,0.5]];portConstraint=eastwest;rounded=0;sketch=0;" vertex="1" parent="vtek3SlrAaMKgHhZsIxQ-154">
          <mxGeometry width="180" height="30" as="geometry" />
        </mxCell>
        <mxCell id="vtek3SlrAaMKgHhZsIxQ-156" value="" style="shape=partialRectangle;connectable=0;fillColor=none;top=0;left=0;bottom=0;right=0;fontStyle=0;overflow=hidden;rounded=0;sketch=0;" vertex="1" parent="vtek3SlrAaMKgHhZsIxQ-155">
          <mxGeometry width="30" height="30" as="geometry">
            <mxRectangle width="30" height="30" as="alternateBounds" />
          </mxGeometry>
        </mxCell>
        <mxCell id="vtek3SlrAaMKgHhZsIxQ-157" value="salary" style="shape=partialRectangle;connectable=0;fillColor=none;top=0;left=0;bottom=0;right=0;align=left;spacingLeft=6;fontStyle=0;overflow=hidden;rounded=0;sketch=0;" vertex="1" parent="vtek3SlrAaMKgHhZsIxQ-155">
          <mxGeometry x="30" width="150" height="30" as="geometry">
            <mxRectangle width="150" height="30" as="alternateBounds" />
          </mxGeometry>
        </mxCell>
        <mxCell id="vtek3SlrAaMKgHhZsIxQ-158" value="" style="shape=table;startSize=0;container=1;collapsible=1;childLayout=tableLayout;fixedRows=1;rowLines=0;fontStyle=0;align=center;resizeLast=1;strokeColor=none;fillColor=none;rounded=0;sketch=0;" vertex="1" parent="1">
          <mxGeometry x="320" y="530" width="180" height="30" as="geometry" />
        </mxCell>
        <mxCell id="vtek3SlrAaMKgHhZsIxQ-159" value="" style="shape=partialRectangle;collapsible=0;dropTarget=0;pointerEvents=0;fillColor=none;top=0;left=0;bottom=0;right=0;points=[[0,0.5],[1,0.5]];portConstraint=eastwest;rounded=0;sketch=0;" vertex="1" parent="vtek3SlrAaMKgHhZsIxQ-158">
          <mxGeometry width="180" height="30" as="geometry" />
        </mxCell>
        <mxCell id="vtek3SlrAaMKgHhZsIxQ-160" value="" style="shape=partialRectangle;connectable=0;fillColor=none;top=0;left=0;bottom=0;right=0;fontStyle=0;overflow=hidden;rounded=0;sketch=0;" vertex="1" parent="vtek3SlrAaMKgHhZsIxQ-159">
          <mxGeometry width="30" height="30" as="geometry">
            <mxRectangle width="30" height="30" as="alternateBounds" />
          </mxGeometry>
        </mxCell>
        <mxCell id="vtek3SlrAaMKgHhZsIxQ-161" value="commision_pct" style="shape=partialRectangle;connectable=0;fillColor=none;top=0;left=0;bottom=0;right=0;align=left;spacingLeft=6;fontStyle=0;overflow=hidden;rounded=0;sketch=0;" vertex="1" parent="vtek3SlrAaMKgHhZsIxQ-159">
          <mxGeometry x="30" width="150" height="30" as="geometry">
            <mxRectangle width="150" height="30" as="alternateBounds" />
          </mxGeometry>
        </mxCell>
        <mxCell id="vtek3SlrAaMKgHhZsIxQ-162" value="" style="shape=table;startSize=0;container=1;collapsible=1;childLayout=tableLayout;fixedRows=1;rowLines=0;fontStyle=0;align=center;resizeLast=1;strokeColor=none;fillColor=none;rounded=0;sketch=0;" vertex="1" parent="1">
          <mxGeometry x="320" y="570" width="180" height="30" as="geometry" />
        </mxCell>
        <mxCell id="vtek3SlrAaMKgHhZsIxQ-163" value="" style="shape=partialRectangle;collapsible=0;dropTarget=0;pointerEvents=0;fillColor=none;top=0;left=0;bottom=0;right=0;points=[[0,0.5],[1,0.5]];portConstraint=eastwest;rounded=0;sketch=0;" vertex="1" parent="vtek3SlrAaMKgHhZsIxQ-162">
          <mxGeometry width="180" height="30" as="geometry" />
        </mxCell>
        <mxCell id="vtek3SlrAaMKgHhZsIxQ-164" value="FK" style="shape=partialRectangle;connectable=0;fillColor=none;top=0;left=0;bottom=0;right=0;fontStyle=0;overflow=hidden;rounded=0;sketch=0;" vertex="1" parent="vtek3SlrAaMKgHhZsIxQ-163">
          <mxGeometry width="30" height="30" as="geometry">
            <mxRectangle width="30" height="30" as="alternateBounds" />
          </mxGeometry>
        </mxCell>
        <mxCell id="vtek3SlrAaMKgHhZsIxQ-165" value="manager_id" style="shape=partialRectangle;connectable=0;fillColor=none;top=0;left=0;bottom=0;right=0;align=left;spacingLeft=6;fontStyle=0;overflow=hidden;rounded=0;sketch=0;" vertex="1" parent="vtek3SlrAaMKgHhZsIxQ-163">
          <mxGeometry x="30" width="150" height="30" as="geometry">
            <mxRectangle width="150" height="30" as="alternateBounds" />
          </mxGeometry>
        </mxCell>
        <mxCell id="vtek3SlrAaMKgHhZsIxQ-166" value="" style="shape=table;startSize=0;container=1;collapsible=1;childLayout=tableLayout;fixedRows=1;rowLines=0;fontStyle=0;align=center;resizeLast=1;strokeColor=none;fillColor=none;rounded=0;sketch=0;" vertex="1" parent="1">
          <mxGeometry x="320" y="610" width="180" height="30" as="geometry" />
        </mxCell>
        <mxCell id="vtek3SlrAaMKgHhZsIxQ-167" value="" style="shape=partialRectangle;collapsible=0;dropTarget=0;pointerEvents=0;fillColor=none;top=0;left=0;bottom=0;right=0;points=[[0,0.5],[1,0.5]];portConstraint=eastwest;rounded=0;sketch=0;" vertex="1" parent="vtek3SlrAaMKgHhZsIxQ-166">
          <mxGeometry width="180" height="30" as="geometry" />
        </mxCell>
        <mxCell id="vtek3SlrAaMKgHhZsIxQ-168" value="FK" style="shape=partialRectangle;connectable=0;fillColor=none;top=0;left=0;bottom=0;right=0;fontStyle=0;overflow=hidden;rounded=0;sketch=0;" vertex="1" parent="vtek3SlrAaMKgHhZsIxQ-167">
          <mxGeometry width="30" height="30" as="geometry">
            <mxRectangle width="30" height="30" as="alternateBounds" />
          </mxGeometry>
        </mxCell>
        <mxCell id="vtek3SlrAaMKgHhZsIxQ-169" value="department_id" style="shape=partialRectangle;connectable=0;fillColor=none;top=0;left=0;bottom=0;right=0;align=left;spacingLeft=6;fontStyle=0;overflow=hidden;rounded=0;sketch=0;" vertex="1" parent="vtek3SlrAaMKgHhZsIxQ-167">
          <mxGeometry x="30" width="150" height="30" as="geometry">
            <mxRectangle width="150" height="30" as="alternateBounds" />
          </mxGeometry>
        </mxCell>
      </root>
    </mxGraphModel>
  </diagram>
</mxfile>
